<mxfile host="app.diagrams.net" modified="2024-03-30T11:09:52.618Z" agent="Mozilla/5.0 (Windows NT 10.0; Win64; x64) AppleWebKit/537.36 (KHTML, like Gecko) Chrome/123.0.0.0 Safari/537.36" etag="6UB0nq4dhv_Orw0Onp_N" version="24.2.1" type="github">
  <diagram name="Page-1" id="6SlAClwbBfPmXxASgEIA">
    <mxGraphModel dx="1026" dy="557" grid="1" gridSize="10" guides="1" tooltips="1" connect="1" arrows="1" fold="1" page="1" pageScale="1" pageWidth="827" pageHeight="1169" math="0" shadow="0">
      <root>
        <mxCell id="0" />
        <mxCell id="1" parent="0" />
        <mxCell id="6JtkeX2M_EoGNMahmyeW-4" style="edgeStyle=orthogonalEdgeStyle;rounded=0;orthogonalLoop=1;jettySize=auto;html=1;" edge="1" parent="1" source="6JtkeX2M_EoGNMahmyeW-1" target="6JtkeX2M_EoGNMahmyeW-3">
          <mxGeometry relative="1" as="geometry" />
        </mxCell>
        <mxCell id="6JtkeX2M_EoGNMahmyeW-1" value="Actor" style="shape=umlActor;verticalLabelPosition=bottom;verticalAlign=top;html=1;outlineConnect=0;" vertex="1" parent="1">
          <mxGeometry x="60" y="185" width="30" height="60" as="geometry" />
        </mxCell>
        <mxCell id="6JtkeX2M_EoGNMahmyeW-2" value="&lt;font style=&quot;font-size: 18px;&quot;&gt;Concept 1: Generic&lt;/font&gt;" style="text;html=1;align=center;verticalAlign=middle;resizable=0;points=[];autosize=1;strokeColor=none;fillColor=none;" vertex="1" parent="1">
          <mxGeometry x="305" y="35" width="180" height="40" as="geometry" />
        </mxCell>
        <mxCell id="6JtkeX2M_EoGNMahmyeW-3" value="AWS ALB" style="sketch=0;outlineConnect=0;fontColor=#232F3E;gradientColor=none;fillColor=#8C4FFF;strokeColor=none;dashed=0;verticalLabelPosition=bottom;verticalAlign=top;align=center;html=1;fontSize=12;fontStyle=0;aspect=fixed;pointerEvents=1;shape=mxgraph.aws4.application_load_balancer;" vertex="1" parent="1">
          <mxGeometry x="190" y="186" width="59" height="59" as="geometry" />
        </mxCell>
        <mxCell id="6JtkeX2M_EoGNMahmyeW-8" value="" style="group" vertex="1" connectable="0" parent="1">
          <mxGeometry x="330" y="150" width="270" height="130" as="geometry" />
        </mxCell>
        <mxCell id="6JtkeX2M_EoGNMahmyeW-5" value="" style="rounded=0;whiteSpace=wrap;html=1;fillColor=#fff2cc;strokeColor=#d6b656;" vertex="1" parent="6JtkeX2M_EoGNMahmyeW-8">
          <mxGeometry width="270" height="130" as="geometry" />
        </mxCell>
        <mxCell id="6JtkeX2M_EoGNMahmyeW-7" value="AWS ECS Space" style="text;html=1;align=center;verticalAlign=middle;resizable=0;points=[];autosize=1;strokeColor=none;fillColor=none;" vertex="1" parent="6JtkeX2M_EoGNMahmyeW-8">
          <mxGeometry width="120" height="30" as="geometry" />
        </mxCell>
        <mxCell id="6JtkeX2M_EoGNMahmyeW-16" value="ECS&lt;br&gt;Service" style="sketch=0;outlineConnect=0;fontColor=#232F3E;gradientColor=none;fillColor=#ED7100;strokeColor=none;dashed=0;verticalLabelPosition=bottom;verticalAlign=top;align=center;html=1;fontSize=12;fontStyle=0;aspect=fixed;pointerEvents=1;shape=mxgraph.aws4.ecs_service;" vertex="1" parent="6JtkeX2M_EoGNMahmyeW-8">
          <mxGeometry x="210.5" y="41" width="39" height="48" as="geometry" />
        </mxCell>
        <mxCell id="6JtkeX2M_EoGNMahmyeW-12" value="ECS&lt;br&gt;Task Definition" style="sketch=0;outlineConnect=0;fontColor=#232F3E;gradientColor=none;fillColor=#ED7100;strokeColor=none;dashed=0;verticalLabelPosition=bottom;verticalAlign=top;align=center;html=1;fontSize=12;fontStyle=0;aspect=fixed;pointerEvents=1;shape=mxgraph.aws4.ecs_task;" vertex="1" parent="6JtkeX2M_EoGNMahmyeW-8">
          <mxGeometry x="120.5" y="41" width="37" height="48" as="geometry" />
        </mxCell>
        <mxCell id="6JtkeX2M_EoGNMahmyeW-11" value="ECS&lt;br&gt;Cluster" style="sketch=0;outlineConnect=0;fontColor=#232F3E;gradientColor=none;fillColor=#ED7100;strokeColor=none;dashed=0;verticalLabelPosition=bottom;verticalAlign=top;align=center;html=1;fontSize=12;fontStyle=0;aspect=fixed;pointerEvents=1;shape=mxgraph.aws4.container_2;" vertex="1" parent="6JtkeX2M_EoGNMahmyeW-8">
          <mxGeometry x="20.5" y="49.5" width="48" height="31" as="geometry" />
        </mxCell>
        <mxCell id="6JtkeX2M_EoGNMahmyeW-17" style="edgeStyle=orthogonalEdgeStyle;rounded=0;orthogonalLoop=1;jettySize=auto;html=1;" edge="1" parent="6JtkeX2M_EoGNMahmyeW-8" source="6JtkeX2M_EoGNMahmyeW-16" target="6JtkeX2M_EoGNMahmyeW-12">
          <mxGeometry relative="1" as="geometry" />
        </mxCell>
        <mxCell id="6JtkeX2M_EoGNMahmyeW-18" style="edgeStyle=orthogonalEdgeStyle;rounded=0;orthogonalLoop=1;jettySize=auto;html=1;" edge="1" parent="6JtkeX2M_EoGNMahmyeW-8" source="6JtkeX2M_EoGNMahmyeW-12" target="6JtkeX2M_EoGNMahmyeW-11">
          <mxGeometry relative="1" as="geometry" />
        </mxCell>
        <mxCell id="6JtkeX2M_EoGNMahmyeW-6" style="edgeStyle=orthogonalEdgeStyle;rounded=0;orthogonalLoop=1;jettySize=auto;html=1;" edge="1" parent="1" source="6JtkeX2M_EoGNMahmyeW-3" target="6JtkeX2M_EoGNMahmyeW-11">
          <mxGeometry relative="1" as="geometry" />
        </mxCell>
        <mxCell id="6JtkeX2M_EoGNMahmyeW-30" style="edgeStyle=orthogonalEdgeStyle;rounded=0;orthogonalLoop=1;jettySize=auto;html=1;" edge="1" parent="1" source="6JtkeX2M_EoGNMahmyeW-28" target="6JtkeX2M_EoGNMahmyeW-12">
          <mxGeometry relative="1" as="geometry">
            <Array as="points">
              <mxPoint x="704" y="164.5" />
              <mxPoint x="469" y="164.5" />
            </Array>
          </mxGeometry>
        </mxCell>
        <mxCell id="6JtkeX2M_EoGNMahmyeW-28" value="ECR Image" style="sketch=0;points=[[0,0,0],[0.25,0,0],[0.5,0,0],[0.75,0,0],[1,0,0],[0,1,0],[0.25,1,0],[0.5,1,0],[0.75,1,0],[1,1,0],[0,0.25,0],[0,0.5,0],[0,0.75,0],[1,0.25,0],[1,0.5,0],[1,0.75,0]];outlineConnect=0;fontColor=#232F3E;fillColor=#ED7100;strokeColor=#ffffff;dashed=0;verticalLabelPosition=bottom;verticalAlign=top;align=center;html=1;fontSize=12;fontStyle=0;aspect=fixed;shape=mxgraph.aws4.resourceIcon;resIcon=mxgraph.aws4.ecr;" vertex="1" parent="1">
          <mxGeometry x="680" y="196.5" width="48" height="48" as="geometry" />
        </mxCell>
      </root>
    </mxGraphModel>
  </diagram>
</mxfile>
